<?xml version="1.0" encoding="UTF-8" standalone="no"?>
<!-- Created with Inkscape (http://www.inkscape.org/) -->

<svg
   xmlns:dc="http://purl.org/dc/elements/1.1/"
   xmlns:cc="http://creativecommons.org/ns#"
   xmlns:rdf="http://www.w3.org/1999/02/22-rdf-syntax-ns#"
   xmlns:svg="http://www.w3.org/2000/svg"
   xmlns="http://www.w3.org/2000/svg"
   xmlns:sodipodi="http://sodipodi.sourceforge.net/DTD/sodipodi-0.dtd"
   xmlns:inkscape="http://www.inkscape.org/namespaces/inkscape"
   width="703.86981"
   height="261.42767"
   id="svg2"
   version="1.1"
   inkscape:version="0.48.2 r9819"
   sodipodi:docname="glyph-terms.svg">
  <defs
     id="defs4" />
  <sodipodi:namedview
     id="base"
     pagecolor="#ffffff"
     bordercolor="#666666"
     borderopacity="1.0"
     inkscape:pageopacity="0.0"
     inkscape:pageshadow="2"
     inkscape:zoom="1.748903"
     inkscape:cx="351.93491"
     inkscape:cy="130.71384"
     inkscape:document-units="pt"
     inkscape:current-layer="layer5"
     showgrid="false"
     showguides="false"
     inkscape:guide-bbox="true"
     inkscape:window-width="1680"
     inkscape:window-height="1030"
     inkscape:window-x="-2"
     inkscape:window-y="-3"
     inkscape:window-maximized="1"
     fit-margin-top="10"
     fit-margin-left="10"
     fit-margin-right="10"
     fit-margin-bottom="10"
     inkscape:snap-page="true"
     inkscape:snap-grids="false"
     inkscape:snap-to-guides="true"
     units="pt">
    <inkscape:grid
       type="xygrid"
       id="grid3025"
       empspacing="5"
       visible="true"
       enabled="true"
       snapvisiblegridlinesonly="true" />
    <sodipodi:guide
       position="158.78954,69.781588"
       orientation="0,70.861416"
       id="guide3085" />
  </sodipodi:namedview>
  <metadata
     id="metadata7">
    <rdf:RDF>
      <cc:Work
         rdf:about="">
        <dc:format>image/svg+xml</dc:format>
        <dc:type
           rdf:resource="http://purl.org/dc/dcmitype/StillImage" />
        <dc:title />
      </cc:Work>
    </rdf:RDF>
  </metadata>
  <g
     inkscape:groupmode="layer"
     id="layer5"
     inkscape:label="lines"
     style="display:inline"
     transform="translate(3.8597937,-4.0611702)"
     sodipodi:insensitive="true">
    <path
       style="fill:none;stroke:#000000;stroke-width:0.81px;stroke-linecap:butt;stroke-linejoin:miter;stroke-opacity:1"
       d="m 28.576594,25.607249 544.278496,0"
       id="path3097"
       inkscape:connector-curvature="0" />
    <path
       style="fill:none;stroke:#000000;stroke-width:0.78499144px;stroke-linecap:butt;stroke-linejoin:miter;stroke-opacity:1"
       d="m 62.815373,37.595016 511.188407,0"
       id="path3101"
       inkscape:connector-curvature="0" />
    <path
       inkscape:connector-curvature="0"
       id="path3103"
       d="m 62.815373,87.410016 511.188407,0"
       style="fill:none;stroke:#000000;stroke-width:0.78499144px;stroke-linecap:butt;stroke-linejoin:miter;stroke-opacity:1" />
    <path
       style="fill:none;stroke:#000000;stroke-width:0.78499144px;stroke-linecap:butt;stroke-linejoin:miter;stroke-opacity:1"
       d="m 62.815373,90.083016 511.188407,0"
       id="path3107"
       inkscape:connector-curvature="0" />
    <path
       inkscape:connector-curvature="0"
       id="path3109"
       d="m 29.077254,196.10683 544.926526,0"
       style="fill:none;stroke:#000000;stroke-width:0.81048203px;stroke-linecap:butt;stroke-linejoin:miter;stroke-opacity:1" />
    <path
       style="fill:none;stroke:#000000;stroke-width:0.81048203px;stroke-linecap:butt;stroke-linejoin:miter;stroke-opacity:1"
       d="m 29.077254,252.49052 544.926526,0"
       id="path3111"
       inkscape:connector-curvature="0" />
    <text
       xml:space="preserve"
       style="font-size:12.96000004px;font-style:normal;font-variant:normal;font-weight:normal;font-stretch:normal;text-align:start;line-height:125%;letter-spacing:0px;word-spacing:0px;writing-mode:lr-tb;text-anchor:start;fill:#000000;fill-opacity:1;stroke:none;font-family:Linux Libertine O;-inkscape-font-specification:Linux Libertine O"
       x="585.62439"
       y="25.60725"
       id="text3113"
       sodipodi:linespacing="125%"><tspan
         sodipodi:role="line"
         x="585.62439"
         y="25.60725"
         id="tspan3117">ascender line</tspan></text>
    <text
       xml:space="preserve"
       style="font-size:12.96000004px;font-style:normal;font-variant:normal;font-weight:normal;font-stretch:normal;text-align:start;line-height:125%;letter-spacing:0px;word-spacing:0px;writing-mode:lr-tb;text-anchor:start;fill:#000000;fill-opacity:1;stroke:none;font-family:Linux Libertine O;-inkscape-font-specification:Linux Libertine O"
       x="585.62439"
       y="38.063217"
       id="text3125"
       sodipodi:linespacing="125%"><tspan
         sodipodi:role="line"
         id="tspan3127"
         x="585.62439"
         y="38.063217">cap line</tspan></text>
    <text
       xml:space="preserve"
       style="font-size:12.96000004px;font-style:normal;font-variant:normal;font-weight:normal;font-stretch:normal;text-align:start;line-height:125%;letter-spacing:0px;word-spacing:0px;writing-mode:lr-tb;text-anchor:start;fill:#000000;fill-opacity:1;stroke:none;font-family:Linux Libertine O;-inkscape-font-specification:Linux Libertine O"
       x="585.62439"
       y="84.575256"
       id="text3129"
       sodipodi:linespacing="125%"><tspan
         sodipodi:role="line"
         id="tspan3131"
         x="585.62439"
         y="84.575256">x-height overshoot</tspan></text>
    <text
       xml:space="preserve"
       style="font-size:12.96000004px;font-style:normal;font-variant:normal;font-weight:normal;font-stretch:normal;text-align:start;line-height:125%;letter-spacing:0px;word-spacing:0px;writing-mode:lr-tb;text-anchor:start;fill:#000000;fill-opacity:1;stroke:none;font-family:Linux Libertine O;-inkscape-font-specification:Linux Libertine O"
       x="585.62439"
       y="96.605156"
       id="text3133"
       sodipodi:linespacing="125%"><tspan
         sodipodi:role="line"
         id="tspan3135"
         x="585.62439"
         y="96.605156">mean line</tspan></text>
    <text
       xml:space="preserve"
       style="font-size:12.96000004px;font-style:normal;font-variant:normal;font-weight:normal;font-stretch:normal;text-align:start;line-height:125%;letter-spacing:0px;word-spacing:0px;writing-mode:lr-tb;text-anchor:start;fill:#000000;fill-opacity:1;stroke:none;font-family:Linux Libertine O;-inkscape-font-specification:Linux Libertine O"
       x="585.62439"
       y="194.08727"
       id="text3137"
       sodipodi:linespacing="125%"><tspan
         sodipodi:role="line"
         id="tspan3139"
         x="585.62439"
         y="194.08727">base line</tspan></text>
    <text
       xml:space="preserve"
       style="font-size:12.96000004px;font-style:normal;font-variant:normal;font-weight:normal;font-stretch:normal;text-align:start;line-height:125%;letter-spacing:0px;word-spacing:0px;writing-mode:lr-tb;text-anchor:start;fill:#000000;fill-opacity:1;stroke:none;font-family:Linux Libertine O;-inkscape-font-specification:Linux Libertine O"
       x="585.62439"
       y="252.08325"
       id="text3141"
       sodipodi:linespacing="125%"><tspan
         sodipodi:role="line"
         id="tspan3143"
         x="585.62439"
         y="252.08325">descender line</tspan></text>
    <path
       style="fill:none;stroke:#000000;stroke-width:0.78499144px;stroke-linecap:butt;stroke-linejoin:miter;stroke-opacity:1"
       d="m 62.815373,198.00469 511.188407,0"
       id="path3945"
       inkscape:connector-curvature="0" />
    <text
       xml:space="preserve"
       style="font-size:12.96000004px;font-style:normal;font-variant:normal;font-weight:normal;font-stretch:normal;text-align:start;line-height:125%;letter-spacing:0px;word-spacing:0px;writing-mode:lr-tb;text-anchor:start;fill:#000000;fill-opacity:1;stroke:none;font-family:Linux Libertine O;-inkscape-font-specification:Linux Libertine O"
       x="585.62439"
       y="207.07971"
       id="text3947"
       sodipodi:linespacing="125%"><tspan
         sodipodi:role="line"
         id="tspan3949"
         x="585.62439"
         y="207.07971">base line overshoot</tspan></text>
  </g>
  <g
     inkscape:groupmode="layer"
     id="layer7"
     inkscape:label="heights"
     style="display:inline"
     transform="translate(-79.620537,-27.729174)"
     sodipodi:insensitive="true">
    <path
       style="fill:#808080;stroke:#cccccc;stroke-width:1.81121504px;stroke-linecap:butt;stroke-linejoin:miter;stroke-opacity:1"
       d="m 632.13857,114.15626 0,105.21899"
       id="path3147"
       inkscape:connector-curvature="0" />
    <text
       xml:space="preserve"
       style="font-size:12.96000004px;font-style:italic;font-variant:normal;font-weight:normal;font-stretch:normal;text-align:start;line-height:125%;letter-spacing:0px;word-spacing:0px;writing-mode:lr-tb;text-anchor:start;fill:#000000;fill-opacity:1;stroke:none;font-family:Linux Libertine O;-inkscape-font-specification:Linux Libertine O Italic"
       x="634.87732"
       y="170.31183"
       id="text3917"
       sodipodi:linespacing="125%"><tspan
         sodipodi:role="line"
         id="tspan3919"
         x="634.87732"
         y="170.31183">x-height</tspan></text>
    <path
       style="fill:none;stroke:#cccccc;stroke-width:1.8073405px;stroke-linecap:butt;stroke-linejoin:miter;stroke-opacity:1"
       d="m 426.95049,61.701665 0,157.673585"
       id="path3923"
       inkscape:connector-curvature="0" />
    <text
       xml:space="preserve"
       style="font-size:12.96000004px;font-style:italic;font-variant:normal;font-weight:normal;font-stretch:normal;text-align:start;line-height:125%;letter-spacing:0px;word-spacing:0px;writing-mode:lr-tb;text-anchor:start;fill:#000000;fill-opacity:1;stroke:none;font-family:Linux Libertine O;-inkscape-font-specification:Linux Libertine O Italic"
       x="369.51105"
       y="87.673241"
       id="text3925"
       sodipodi:linespacing="125%"><tspan
         sodipodi:role="line"
         id="tspan3927"
         x="369.51105"
         y="87.673241">cap height</tspan></text>
    <path
       style="fill:none;stroke:#cccccc;stroke-width:1.81121504px;stroke-linecap:butt;stroke-linejoin:miter;stroke-opacity:1"
       d="m 139.59267,49.275244 0,170.100006"
       id="path3929"
       inkscape:connector-curvature="0" />
    <text
       xml:space="preserve"
       style="font-size:12.96000004px;font-style:italic;font-variant:normal;font-weight:normal;font-stretch:normal;text-align:start;line-height:125%;letter-spacing:0px;word-spacing:0px;writing-mode:lr-tb;text-anchor:start;fill:#000000;fill-opacity:1;stroke:none;font-family:Linux Libertine O;-inkscape-font-specification:Linux Libertine O Italic"
       x="91.109657"
       y="164.3788"
       id="text3933"
       sodipodi:linespacing="125%"><tspan
         sodipodi:role="line"
         id="tspan3935"
         x="91.109657"
         y="164.3788">ascender</tspan></text>
    <text
       xml:space="preserve"
       style="font-size:12.96000004px;font-style:italic;font-variant:normal;font-weight:normal;font-stretch:normal;text-align:start;line-height:125%;letter-spacing:0px;word-spacing:0px;writing-mode:lr-tb;text-anchor:start;fill:#000000;fill-opacity:1;stroke:none;font-family:Linux Libertine O;-inkscape-font-specification:Linux Libertine O Italic"
       x="128.79964"
       y="253.44936"
       id="text3937"
       sodipodi:linespacing="125%"><tspan
         sodipodi:role="line"
         id="tspan3939"
         x="128.79964"
         y="253.44936">descender</tspan></text>
    <path
       style="fill:none;stroke:#cccccc;stroke-width:1.81121504px;stroke-linecap:butt;stroke-linejoin:miter;stroke-opacity:1"
       d="m 127.30282,219.37525 0,56.376"
       id="path3931"
       inkscape:connector-curvature="0" />
  </g>
  <g
     inkscape:groupmode="layer"
     id="layer4"
     inkscape:label="x"
     style="display:inline"
     transform="translate(3.8597917,11.23883)"
     sodipodi:insensitive="true">
    <g
       transform="matrix(0.81,0,0,0.81,26.970771,-347.68211)"
       style="display:inline"
       id="g3054">
      <path
         d="m 538.63906,543.96218 c -7.49999,-11.39999 -4.49998,-10.2 8.7,-12 1.8,-1.8 1.8,-8.1 0,-9.9 -11.09999,0.3 -21.30001,0.6 -30.3,0.6 -8.99999,0 -14.70001,-0.3 -25.8,-0.6 -1.8,1.8 -1.8,8.1 0,9.9 10.19999,0.9 18.60001,6.00001 27,18.3 l 26.1,38.1 c 0.6,1.5 1.8,2.7 0.3,4.5 l -25.2,32.4 c -12.59998,16.19999 -18.60001,16.2 -29.1,16.8 -1.8,1.8 -1.8,8.1 0,9.9 11.09999,-0.3 10.80001,-0.6 21.6,-0.6 11.39999,0 14.10001,0.3 25.2,0.6 1.8,-1.8 1.8,-8.1 0,-9.9 -8.09999,-0.9 -13.19999,-2.70001 -6.6,-12 l 18.9,-27.3 c 2.1,-2.99999 2.70001,-3.59999 5.4,-0.6 l 17.4,24 c 11.09999,15.29999 5.69999,14.4 -3.9,15.9 -1.8,1.8 -1.8,8.1 0,9.9 11.09999,-0.3 20.40001,-0.6 31.2,-0.6 11.39999,0 14.10001,0.3 25.2,0.6 1.8,-1.8 1.8,-8.1 0,-9.9 -9.59999,-0.9 -17.10001,-0.30002 -30,-18.9 l -27,-38.1 c -1.8,-2.39999 -0.9,-3.3 0,-4.5 l 25.2,-32.1 c 11.09999,-14.09998 18.00001,-15.6 29.1,-16.5 1.8,-1.8 1.8,-8.1 0,-9.9 -7.49999,0.3 -12.30001,0.6 -21.9,0.6 -9.29999,0 -14.10001,-0.3 -25.2,-0.6 -1.8,1.8 -1.8,8.1 0,9.9 9.89999,1.5 14.69999,1.80001 7.2,12.3 l -19.5,27.3 c -1.2,1.5 -2.7,3.6 -5.7,-0.6 l -18.3,-27"
         style="font-size:300px;font-style:normal;font-variant:normal;font-weight:normal;font-stretch:normal;text-align:start;line-height:125%;letter-spacing:0px;word-spacing:0px;writing-mode:lr-tb;text-anchor:start;fill:#000000;fill-opacity:1;stroke:none;font-family:Linux Libertine O;-inkscape-font-specification:Linux Libertine O"
         id="path3000"
         inkscape:connector-curvature="0" />
    </g>
  </g>
  <g
     inkscape:groupmode="layer"
     id="layer2"
     inkscape:label="f"
     style="display:inline"
     transform="translate(3.8597917,-4.0611702)"
     sodipodi:insensitive="true">
    <g
       transform="matrix(0.81,0,0,0.81,26.970771,-332.38211)"
       id="g3038">
      <path
         d="m 443.375,614.76218 0,-80.4 27.9,0 c 2.7,0 6.9,-1.2 6.9,-3.9 l 0,-6 c 0,-1.2 -0.9,-1.8 -2.4,-1.8 l -32.4,0 0,-17.1 c 0,-46.19995 13.80001,-53.4 23.7,-53.4 8.99999,0 13.8,3.60001 18,14.1 2.4,5.4 5.70001,9.6 12,9.6 5.09999,0 12.3,-6.3 12.3,-12.3 0,-5.09999 -3.30001,-10.5 -9.6,-15.3 -7.79999,-5.39999 -15.60001,-6.3 -27,-6.3 -25.19997,0 -53.1,21.90005 -53.1,68.7 l 0,12 -15.3,0 c -5.39999,0 -6.9,3.60001 -6.9,6 l 0,3.9 c 0,1.5 0.3,1.8 1.5,1.8 l 20.7,0 0,80.4 c 0,24.89998 -3.30002,26.1 -19.5,27.3 -1.8,1.8 -1.8,8.1 0,9.9 12.59999,-0.3 19.20001,-0.6 31.5,-0.6 13.79999,0 22.50001,0.3 35.4,0.6 1.8,-1.8 1.8,-8.1 0,-9.9 -20.39998,-1.2 -23.7,-2.40002 -23.7,-27.3"
         style="font-size:300px;font-style:normal;font-variant:normal;font-weight:normal;font-stretch:normal;text-align:start;line-height:125%;letter-spacing:0px;word-spacing:0px;writing-mode:lr-tb;text-anchor:start;fill:#000000;fill-opacity:1;stroke:none;font-family:Linux Libertine O;-inkscape-font-specification:Linux Libertine O"
         id="path2998"
         inkscape:connector-curvature="0" />
    </g>
  </g>
  <g
     inkscape:groupmode="layer"
     id="layer3"
     inkscape:label="p"
     style="display:inline"
     transform="translate(3.8597917,11.23883)"
     sodipodi:insensitive="true">
    <g
       transform="matrix(0.81,0,0,0.81,26.970771,-347.68211)"
       id="g3049">
      <path
         d="m 287.51562,552.06218 c 7.8,-9.59999 21.30001,-18.6 30.3,-18.6 19.19999,0 35.7,21.60004 35.7,55.5 0,24.59998 -8.70003,55.2 -42.3,55.2 -5.39999,0 -15.9,-1.5 -21.3,-6.3 -6.29999,-5.39999 -7.2,-6.90001 -7.2,-18 l 0,-54.6 c 0,-6.29999 1.20001,-8.7 4.8,-13.2 m -4.8,-11.1 c 0,-8.99999 -1.2,-16.5 -2.4,-19.8 -0.89999,-1.2 -1.2,-2.4 -3.6,-2.4 -8.39999,3.3 -17.10002,6.00001 -37.8,8.7 -0.59999,1.8 1e-5,6.6 0.6,8.4 16.19999,1.5 19.5,3.00002 19.5,20.4 l 0,128.1 c 0,24.89998 -3.30001,26.4 -21.6,27.3 -1.79999,1.8 -1.79999,8.1 0,9.9 12.59999,-0.3 20.40002,-0.6 33.6,-0.6 14.09999,0 23.40002,0.3 36.3,0.6 1.8,-1.8 1.8,-8.1 0,-9.9 -21.29997,-1.2 -24.6,-2.40002 -24.6,-27.3 l 0,-32.4 c 0,-3.89999 0.90001,-3.3 4.2,-2.1 7.2,3 16.50001,4.5 26.1,4.5 16.79999,0 31.80002,-5.10001 44.10001,-16.8 14.09998,-13.79998 22.19999,-32.40002 22.19999,-56.7 0,-31.79997 -22.50003,-61.2 -53.1,-61.2 -14.09998,0 -29.40001,8.70002 -41.09999,22.5 -0.9,1.2 -2.40001,1.2 -2.40001,-1.2"
         style="font-size:300px;font-style:normal;font-variant:normal;font-weight:normal;font-stretch:normal;text-align:start;line-height:125%;letter-spacing:0px;word-spacing:0px;writing-mode:lr-tb;text-anchor:start;fill:#000000;fill-opacity:1;stroke:none;font-family:Linux Libertine O;-inkscape-font-specification:Linux Libertine O"
         id="path2996"
         inkscape:connector-curvature="0" />
    </g>
  </g>
  <g
     inkscape:label="K"
     inkscape:groupmode="layer"
     id="layer1"
     transform="translate(-44.490207,-446.02334)"
     style="display:inline"
     sodipodi:insensitive="true">
    <text
       xml:space="preserve"
       style="font-size:56px;font-style:normal;font-variant:normal;font-weight:normal;font-stretch:normal;line-height:125%;letter-spacing:0px;word-spacing:0px;fill:#000000;fill-opacity:1;stroke:none;font-family:Linux Libertine O;-inkscape-font-specification:Linux Libertine O"
       x="45"
       y="671.36218"
       id="text2985"
       sodipodi:linespacing="125%"><tspan
         sodipodi:role="line"
         id="tspan2987"
         x="45"
         y="671.36218" /></text>
    <path
       inkscape:connector-curvature="0"
       id="path2994"
       style="font-size:300px;font-style:normal;font-variant:normal;font-weight:normal;font-stretch:normal;text-align:start;line-height:125%;letter-spacing:0px;word-spacing:0px;writing-mode:lr-tb;text-anchor:start;fill:#000000;fill-opacity:1;stroke:none;font-family:Linux Libertine O;-inkscape-font-specification:Linux Libertine O"
       d="m 157.37377,607.53743 0,-45.198 c 8.01899,0.243 15.06601,2.91601 20.169,8.991 l 38.151,48.114 c 4.85999,6.31799 8.262,12.87901 8.748,16.767 0,0.729 0.243,1.458 1.215,1.458 4.85999,-0.243 5.83201,-0.486 13.122,-0.486 9.47699,0 13.12201,0.243 24.543,0.486 1.458,-1.458 1.458,-6.561 0,-8.019 -4.37399,-0.486 -13.36501,-10e-6 -21.384,-10.206 l -53.217,-63.18 c -1.944,-2.18699 -3.159,-4.131 -3.159,-6.075 0,-1.701 0.24301,-3.40201 8.505,-11.907 l 35.721,-36.693 c 11.17799,-11.90698 20.89801,-12.393 30.618,-13.608 1.458,-1.458 1.458,-6.561 0,-8.019 -11.42099,0.243 -13.36501,0.486 -23.085,0.486 -9.71999,0 -16.03801,-0.243 -27.459,-0.486 -1.458,1.458 -1.458,6.561 0,8.019 8.74799,0.972 17.00999,1.70102 6.804,12.636 l -40.095,42.768 c -5.34599,5.589 -10.69201,8.748 -19.197,9.477 l 0,-42.768 c 0,-20.16897 4.13102,-21.384 21.141,-22.113 1.458,-1.458 1.458,-6.561 0,-8.019 -11.90699,0.243 -19.19702,0.486 -31.59,0.486 -12.14998,0 -19.19701,-0.243 -31.347,-0.486 -1.458,1.458 -1.458,6.561 0,8.019 17.00998,0.729 21.141,1.94403 21.141,22.113 l 0,97.443 c 0,20.16898 -4.13102,21.384 -21.141,22.113 -1.458,1.458 -1.458,6.561 0,8.019 11.90699,-0.243 19.19702,-0.486 31.59,-0.486 12.14998,0 19.19702,0.243 31.347,0.486 1.458,-1.458 1.458,-6.561 0,-8.019 -17.00998,-0.729 -21.141,-1.94402 -21.141,-22.113" />
  </g>
</svg>
