<?xml version="1.0" encoding="UTF-8" standalone="no"?>
<!-- Created with Inkscape (http://www.inkscape.org/) -->

<svg
   xmlns:dc="http://purl.org/dc/elements/1.1/"
   xmlns:cc="http://creativecommons.org/ns#"
   xmlns:rdf="http://www.w3.org/1999/02/22-rdf-syntax-ns#"
   xmlns:svg="http://www.w3.org/2000/svg"
   xmlns="http://www.w3.org/2000/svg"
   xmlns:sodipodi="http://sodipodi.sourceforge.net/DTD/sodipodi-0.dtd"
   xmlns:inkscape="http://www.inkscape.org/namespaces/inkscape"
   width="863.1109"
   height="316.88605"
   id="svg2"
   version="1.1"
   inkscape:version="0.48.2 r9819"
   sodipodi:docname="glyph-terms.svg">
  <defs
     id="defs4" />
  <sodipodi:namedview
     id="base"
     pagecolor="#ffffff"
     bordercolor="#666666"
     borderopacity="1.0"
     inkscape:pageopacity="0.0"
     inkscape:pageshadow="2"
     inkscape:zoom="1"
     inkscape:cx="431.55545"
     inkscape:cy="158.44302"
     inkscape:document-units="pt"
     inkscape:current-layer="layer5"
     showgrid="false"
     showguides="false"
     inkscape:guide-bbox="true"
     inkscape:window-width="1680"
     inkscape:window-height="1030"
     inkscape:window-x="-2"
     inkscape:window-y="-3"
     inkscape:window-maximized="1"
     fit-margin-top="10"
     fit-margin-left="10"
     fit-margin-right="10"
     fit-margin-bottom="10"
     inkscape:snap-page="false"
     inkscape:snap-grids="false"
     inkscape:snap-to-guides="true"
     units="pt">
    <inkscape:grid
       type="xygrid"
       id="grid3025"
       empspacing="5"
       visible="true"
       enabled="true"
       snapvisiblegridlinesonly="true" />
    <sodipodi:guide
       position="83.480331,293.21804"
       orientation="0,577.73907"
       id="guide3031" />
    <sodipodi:guide
       position="83.480331,13.618028"
       orientation="0,577.73907"
       id="guide3035" />
    <sodipodi:guide
       position="83.480331,277.91803"
       orientation="0.07002034,577.73907"
       id="guide3045" />
    <sodipodi:guide
       position="83.480331,83.218026"
       orientation="0,577.73907"
       id="guide3061" />
    <sodipodi:guide
       position="524.1194,213.11802"
       orientation="0,181.59029"
       id="guide3077" />
    <sodipodi:guide
       position="271.19596,216.41803"
       orientation="0,321.95694"
       id="guide3081" />
    <sodipodi:guide
       position="724.82618,340.65492"
       orientation="96.520075,0"
       id="guide3123" />
    <sodipodi:guide
       position="348.29227,80.874158"
       orientation="0,16.91049"
       id="guide3943" />
    <sodipodi:guide
       position="79.382927,305.11125"
       orientation="52.921951,0"
       id="guide3953" />
  </sodipodi:namedview>
  <metadata
     id="metadata7">
    <rdf:RDF>
      <cc:Work
         rdf:about="">
        <dc:format>image/svg+xml</dc:format>
        <dc:type
           rdf:resource="http://purl.org/dc/dcmitype/StillImage" />
        <dc:title></dc:title>
      </cc:Work>
    </rdf:RDF>
  </metadata>
  <g
     inkscape:groupmode="layer"
     id="layer5"
     inkscape:label="lines"
     style="display:inline"
     transform="translate(83.480333,23.668004)">
    <path
       style="fill:none;stroke:#000000;stroke-width:1px;stroke-linecap:butt;stroke-linejoin:miter;stroke-opacity:1"
       d="m -46.367504,-3.8964844e-6 671.948754,0"
       id="path3097"
       inkscape:connector-curvature="0" />
    <path
       style="fill:none;stroke:#000000;stroke-width:0.96912521px;stroke-linecap:butt;stroke-linejoin:miter;stroke-opacity:1"
       d="m -4.097406,14.799709 631.096806,0"
       id="path3101"
       inkscape:connector-curvature="0" />
    <path
       inkscape:connector-curvature="0"
       id="path3103"
       d="m -4.097406,76.299709 631.096806,0"
       style="fill:none;stroke:#000000;stroke-width:0.96912521px;stroke-linecap:butt;stroke-linejoin:miter;stroke-opacity:1" />
    <path
       style="fill:none;stroke:#000000;stroke-width:0.96912521px;stroke-linecap:butt;stroke-linejoin:miter;stroke-opacity:1"
       d="m -4.097406,79.599709 631.096806,0"
       id="path3107"
       inkscape:connector-curvature="0" />
    <path
       inkscape:connector-curvature="0"
       id="path3109"
       d="m -45.749405,209.49971 672.748805,0"
       style="fill:none;stroke:#000000;stroke-width:1.00059509px;stroke-linecap:butt;stroke-linejoin:miter;stroke-opacity:1" />
    <path
       style="fill:none;stroke:#000000;stroke-width:1.00059509px;stroke-linecap:butt;stroke-linejoin:miter;stroke-opacity:1"
       d="m -45.749405,279.09971 672.748805,0"
       id="path3111"
       inkscape:connector-curvature="0" />
    <text
       xml:space="preserve"
       style="font-size:16px;font-style:normal;font-variant:normal;font-weight:normal;font-stretch:normal;text-align:start;line-height:125%;letter-spacing:0px;word-spacing:0px;writing-mode:lr-tb;text-anchor:start;fill:#000000;fill-opacity:1;stroke:none;font-family:Linux Libertine O;-inkscape-font-specification:Linux Libertine O"
       x="641.34583"
       y="-3.8964845e-06"
       id="text3113"
       sodipodi:linespacing="125%"><tspan
         sodipodi:role="line"
         x="641.34583"
         y="-3.8964845e-06"
         id="tspan3117">ascender line</tspan></text>
    <text
       xml:space="preserve"
       style="font-size:16px;font-style:normal;font-variant:normal;font-weight:normal;font-stretch:normal;text-align:start;line-height:125%;letter-spacing:0px;word-spacing:0px;writing-mode:lr-tb;text-anchor:start;fill:#000000;fill-opacity:1;stroke:none;font-family:Linux Libertine O;-inkscape-font-specification:Linux Libertine O"
       x="641.34583"
       y="15.377735"
       id="text3125"
       sodipodi:linespacing="125%"><tspan
         sodipodi:role="line"
         id="tspan3127"
         x="641.34583"
         y="15.377735">cap line</tspan></text>
    <text
       xml:space="preserve"
       style="font-size:16px;font-style:normal;font-variant:normal;font-weight:normal;font-stretch:normal;text-align:start;line-height:125%;letter-spacing:0px;word-spacing:0px;writing-mode:lr-tb;text-anchor:start;fill:#000000;fill-opacity:1;stroke:none;font-family:Linux Libertine O;-inkscape-font-specification:Linux Libertine O"
       x="641.34583"
       y="72.800003"
       id="text3129"
       sodipodi:linespacing="125%"><tspan
         sodipodi:role="line"
         id="tspan3131"
         x="641.34583"
         y="72.800003">x-height overshoot</tspan></text>
    <text
       xml:space="preserve"
       style="font-size:16px;font-style:normal;font-variant:normal;font-weight:normal;font-stretch:normal;text-align:start;line-height:125%;letter-spacing:0px;word-spacing:0px;writing-mode:lr-tb;text-anchor:start;fill:#000000;fill-opacity:1;stroke:none;font-family:Linux Libertine O;-inkscape-font-specification:Linux Libertine O"
       x="641.34583"
       y="87.651733"
       id="text3133"
       sodipodi:linespacing="125%"><tspan
         sodipodi:role="line"
         id="tspan3135"
         x="641.34583"
         y="87.651733">mean line</tspan></text>
    <text
       xml:space="preserve"
       style="font-size:16px;font-style:normal;font-variant:normal;font-weight:normal;font-stretch:normal;text-align:start;line-height:125%;letter-spacing:0px;word-spacing:0px;writing-mode:lr-tb;text-anchor:start;fill:#000000;fill-opacity:1;stroke:none;font-family:Linux Libertine O;-inkscape-font-specification:Linux Libertine O"
       x="641.34583"
       y="208.00002"
       id="text3137"
       sodipodi:linespacing="125%"><tspan
         sodipodi:role="line"
         id="tspan3139"
         x="641.34583"
         y="208.00002">base line</tspan></text>
    <text
       xml:space="preserve"
       style="font-size:16px;font-style:normal;font-variant:normal;font-weight:normal;font-stretch:normal;text-align:start;line-height:125%;letter-spacing:0px;word-spacing:0px;writing-mode:lr-tb;text-anchor:start;fill:#000000;fill-opacity:1;stroke:none;font-family:Linux Libertine O;-inkscape-font-specification:Linux Libertine O"
       x="641.34583"
       y="279.60001"
       id="text3141"
       sodipodi:linespacing="125%"><tspan
         sodipodi:role="line"
         id="tspan3143"
         x="641.34583"
         y="279.60001">descender line</tspan></text>
    <path
       style="fill:#808080;stroke:#cccccc;stroke-width:2.23606801px;stroke-linecap:butt;stroke-linejoin:miter;stroke-opacity:1"
       d="M 595.7086,80.100006 595.7086,210"
       id="path3147"
       inkscape:connector-curvature="0" />
    <text
       xml:space="preserve"
       style="font-size:16px;font-style:italic;font-variant:normal;font-weight:normal;font-stretch:normal;text-align:start;line-height:125%;letter-spacing:0px;word-spacing:0px;writing-mode:lr-tb;text-anchor:start;fill:#000000;fill-opacity:1;stroke:none;font-family:Linux Libertine O;-inkscape-font-specification:Linux Libertine O Italic"
       x="599.08972"
       y="149.42787"
       id="text3917"
       sodipodi:linespacing="125%"><tspan
         sodipodi:role="line"
         id="tspan3919"
         x="599.08972"
         y="149.42787">x-height</tspan></text>
    <path
       style="fill:none;stroke:#cccccc;stroke-width:2.23128462px;stroke-linecap:butt;stroke-linejoin:miter;stroke-opacity:1"
       d="m 342.38999,15.341245 0,194.658755"
       id="path3923"
       inkscape:connector-curvature="0" />
    <text
       xml:space="preserve"
       style="font-size:16px;font-style:italic;font-variant:normal;font-weight:normal;font-stretch:normal;text-align:start;line-height:125%;letter-spacing:0px;word-spacing:0px;writing-mode:lr-tb;text-anchor:start;fill:#000000;fill-opacity:1;stroke:none;font-family:Linux Libertine O;-inkscape-font-specification:Linux Libertine O Italic"
       x="271.47708"
       y="47.404919"
       id="text3925"
       sodipodi:linespacing="125%"><tspan
         sodipodi:role="line"
         id="tspan3927"
         x="271.47708"
         y="47.404919">cap height</tspan></text>
    <path
       style="fill:none;stroke:#cccccc;stroke-width:2.23606801px;stroke-linecap:butt;stroke-linejoin:miter;stroke-opacity:1"
       d="m -12.372765,-1.5e-5 0,210.000015"
       id="path3929"
       inkscape:connector-curvature="0" />
    <text
       xml:space="preserve"
       style="font-size:16px;font-style:italic;font-variant:normal;font-weight:normal;font-stretch:normal;text-align:start;line-height:125%;letter-spacing:0px;word-spacing:0px;writing-mode:lr-tb;text-anchor:start;fill:#000000;fill-opacity:1;stroke:none;font-family:Linux Libertine O;-inkscape-font-specification:Linux Libertine O Italic"
       x="-72.228333"
       y="142.10315"
       id="text3933"
       sodipodi:linespacing="125%"><tspan
         sodipodi:role="line"
         id="tspan3935"
         x="-72.228333"
         y="142.10315">ascender</tspan></text>
    <text
       xml:space="preserve"
       style="font-size:16px;font-style:italic;font-variant:normal;font-weight:normal;font-stretch:normal;text-align:start;line-height:125%;letter-spacing:0px;word-spacing:0px;writing-mode:lr-tb;text-anchor:start;fill:#000000;fill-opacity:1;stroke:none;font-family:Linux Libertine O;-inkscape-font-specification:Linux Libertine O Italic"
       x="-25.697491"
       y="252.0668"
       id="text3937"
       sodipodi:linespacing="125%"><tspan
         sodipodi:role="line"
         id="tspan3939"
         x="-25.697491"
         y="252.0668">descender</tspan></text>
    <path
       style="fill:none;stroke:#000000;stroke-width:0.96912521px;stroke-linecap:butt;stroke-linejoin:miter;stroke-opacity:1"
       d="m -4.097406,211.84275 631.096806,0"
       id="path3945"
       inkscape:connector-curvature="0" />
    <text
       xml:space="preserve"
       style="font-size:16px;font-style:normal;font-variant:normal;font-weight:normal;font-stretch:normal;text-align:start;line-height:125%;letter-spacing:0px;word-spacing:0px;writing-mode:lr-tb;text-anchor:start;fill:#000000;fill-opacity:1;stroke:none;font-family:Linux Libertine O;-inkscape-font-specification:Linux Libertine O"
       x="641.34583"
       y="224.04007"
       id="text3947"
       sodipodi:linespacing="125%"><tspan
         sodipodi:role="line"
         id="tspan3949"
         x="641.34583"
         y="224.04007">base line overshoot</tspan></text>
    <path
       style="fill:none;stroke:#cccccc;stroke-width:2.23606801px;stroke-linecap:butt;stroke-linejoin:miter;stroke-opacity:1"
       d="m -27.54541,210 0,69.6"
       id="path3931"
       inkscape:connector-curvature="0" />
  </g>
  <g
     inkscape:groupmode="layer"
     id="layer4"
     inkscape:label="x"
     style="display:inline"
     transform="translate(83.480331,38.968004)"
     sodipodi:insensitive="true">
    <g
       transform="translate(-48.350002,-457.26218)"
       style="display:inline"
       id="g3054">
      <path
         d="m 538.63906,543.96218 c -7.49999,-11.39999 -4.49998,-10.2 8.7,-12 1.8,-1.8 1.8,-8.1 0,-9.9 -11.09999,0.3 -21.30001,0.6 -30.3,0.6 -8.99999,0 -14.70001,-0.3 -25.8,-0.6 -1.8,1.8 -1.8,8.1 0,9.9 10.19999,0.9 18.60001,6.00001 27,18.3 l 26.1,38.1 c 0.6,1.5 1.8,2.7 0.3,4.5 l -25.2,32.4 c -12.59998,16.19999 -18.60001,16.2 -29.1,16.8 -1.8,1.8 -1.8,8.1 0,9.9 11.09999,-0.3 10.80001,-0.6 21.6,-0.6 11.39999,0 14.10001,0.3 25.2,0.6 1.8,-1.8 1.8,-8.1 0,-9.9 -8.09999,-0.9 -13.19999,-2.70001 -6.6,-12 l 18.9,-27.3 c 2.1,-2.99999 2.70001,-3.59999 5.4,-0.6 l 17.4,24 c 11.09999,15.29999 5.69999,14.4 -3.9,15.9 -1.8,1.8 -1.8,8.1 0,9.9 11.09999,-0.3 20.40001,-0.6 31.2,-0.6 11.39999,0 14.10001,0.3 25.2,0.6 1.8,-1.8 1.8,-8.1 0,-9.9 -9.59999,-0.9 -17.10001,-0.30002 -30,-18.9 l -27,-38.1 c -1.8,-2.39999 -0.9,-3.3 0,-4.5 l 25.2,-32.1 c 11.09999,-14.09998 18.00001,-15.6 29.1,-16.5 1.8,-1.8 1.8,-8.1 0,-9.9 -7.49999,0.3 -12.30001,0.6 -21.9,0.6 -9.29999,0 -14.10001,-0.3 -25.2,-0.6 -1.8,1.8 -1.8,8.1 0,9.9 9.89999,1.5 14.69999,1.80001 7.2,12.3 l -19.5,27.3 c -1.2,1.5 -2.7,3.6 -5.7,-0.6 l -18.3,-27"
         style="font-size:300px;font-style:normal;font-variant:normal;font-weight:normal;font-stretch:normal;text-align:start;line-height:125%;letter-spacing:0px;word-spacing:0px;writing-mode:lr-tb;text-anchor:start;fill:#000000;fill-opacity:1;stroke:none;font-family:Linux Libertine O;-inkscape-font-specification:Linux Libertine O"
         id="path3000"
         inkscape:connector-curvature="0" />
    </g>
  </g>
  <g
     inkscape:groupmode="layer"
     id="layer2"
     inkscape:label="f"
     style="display:inline"
     transform="translate(83.480331,23.668004)"
     sodipodi:insensitive="true">
    <g
       transform="translate(-48.350002,-441.96218)"
       id="g3038">
      <path
         d="m 443.375,614.76218 0,-80.4 27.9,0 c 2.7,0 6.9,-1.2 6.9,-3.9 l 0,-6 c 0,-1.2 -0.9,-1.8 -2.4,-1.8 l -32.4,0 0,-17.1 c 0,-46.19995 13.80001,-53.4 23.7,-53.4 8.99999,0 13.8,3.60001 18,14.1 2.4,5.4 5.70001,9.6 12,9.6 5.09999,0 12.3,-6.3 12.3,-12.3 0,-5.09999 -3.30001,-10.5 -9.6,-15.3 -7.79999,-5.39999 -15.60001,-6.3 -27,-6.3 -25.19997,0 -53.1,21.90005 -53.1,68.7 l 0,12 -15.3,0 c -5.39999,0 -6.9,3.60001 -6.9,6 l 0,3.9 c 0,1.5 0.3,1.8 1.5,1.8 l 20.7,0 0,80.4 c 0,24.89998 -3.30002,26.1 -19.5,27.3 -1.8,1.8 -1.8,8.1 0,9.9 12.59999,-0.3 19.20001,-0.6 31.5,-0.6 13.79999,0 22.50001,0.3 35.4,0.6 1.8,-1.8 1.8,-8.1 0,-9.9 -20.39998,-1.2 -23.7,-2.40002 -23.7,-27.3"
         style="font-size:300px;font-style:normal;font-variant:normal;font-weight:normal;font-stretch:normal;text-align:start;line-height:125%;letter-spacing:0px;word-spacing:0px;writing-mode:lr-tb;text-anchor:start;fill:#000000;fill-opacity:1;stroke:none;font-family:Linux Libertine O;-inkscape-font-specification:Linux Libertine O"
         id="path2998"
         inkscape:connector-curvature="0" />
    </g>
  </g>
  <g
     inkscape:groupmode="layer"
     id="layer3"
     inkscape:label="p"
     style="display:inline"
     transform="translate(83.480331,38.968004)"
     sodipodi:insensitive="true">
    <g
       transform="translate(-48.350002,-457.26218)"
       id="g3049">
      <path
         d="m 287.51562,552.06218 c 7.8,-9.59999 21.30001,-18.6 30.3,-18.6 19.19999,0 35.7,21.60004 35.7,55.5 0,24.59998 -8.70003,55.2 -42.3,55.2 -5.39999,0 -15.9,-1.5 -21.3,-6.3 -6.29999,-5.39999 -7.2,-6.90001 -7.2,-18 l 0,-54.6 c 0,-6.29999 1.20001,-8.7 4.8,-13.2 m -4.8,-11.1 c 0,-8.99999 -1.2,-16.5 -2.4,-19.8 -0.89999,-1.2 -1.2,-2.4 -3.6,-2.4 -8.39999,3.3 -17.10002,6.00001 -37.8,8.7 -0.59999,1.8 1e-5,6.6 0.6,8.4 16.19999,1.5 19.5,3.00002 19.5,20.4 l 0,128.1 c 0,24.89998 -3.30001,26.4 -21.6,27.3 -1.79999,1.8 -1.79999,8.1 0,9.9 12.59999,-0.3 20.40002,-0.6 33.6,-0.6 14.09999,0 23.40002,0.3 36.3,0.6 1.8,-1.8 1.8,-8.1 0,-9.9 -21.29997,-1.2 -24.6,-2.40002 -24.6,-27.3 l 0,-32.4 c 0,-3.89999 0.90001,-3.3 4.2,-2.1 7.2,3 16.50001,4.5 26.1,4.5 16.79999,0 31.80002,-5.10001 44.10001,-16.8 14.09998,-13.79998 22.19999,-32.40002 22.19999,-56.7 0,-31.79997 -22.50003,-61.2 -53.1,-61.2 -14.09998,0 -29.40001,8.70002 -41.09999,22.5 -0.9,1.2 -2.40001,1.2 -2.40001,-1.2"
         style="font-size:300px;font-style:normal;font-variant:normal;font-weight:normal;font-stretch:normal;text-align:start;line-height:125%;letter-spacing:0px;word-spacing:0px;writing-mode:lr-tb;text-anchor:start;fill:#000000;fill-opacity:1;stroke:none;font-family:Linux Libertine O;-inkscape-font-specification:Linux Libertine O"
         id="path2996"
         inkscape:connector-curvature="0" />
    </g>
  </g>
  <g
     inkscape:label="K"
     inkscape:groupmode="layer"
     id="layer1"
     transform="translate(35.130332,-418.29417)"
     style="display:inline"
     sodipodi:insensitive="true">
    <text
       xml:space="preserve"
       style="font-size:56px;font-style:normal;font-variant:normal;font-weight:normal;font-stretch:normal;line-height:125%;letter-spacing:0px;word-spacing:0px;fill:#000000;fill-opacity:1;stroke:none;font-family:Linux Libertine O;-inkscape-font-specification:Linux Libertine O"
       x="45"
       y="671.36218"
       id="text2985"
       sodipodi:linespacing="125%"><tspan
         sodipodi:role="line"
         id="tspan2987"
         x="45"
         y="671.36218" /></text>
    <path
       inkscape:connector-curvature="0"
       id="path2994"
       style="font-size:300px;font-style:normal;font-variant:normal;font-weight:normal;font-stretch:normal;text-align:start;line-height:125%;letter-spacing:0px;word-spacing:0px;writing-mode:lr-tb;text-anchor:start;fill:#000000;fill-opacity:1;stroke:none;font-family:Linux Libertine O;-inkscape-font-specification:Linux Libertine O"
       d="m 101.3,614.76218 0,-55.8 c 9.89999,0.3 18.60001,3.60001 24.9,11.1 l 47.1,59.4 c 5.99999,7.79999 10.2,15.90001 10.8,20.7 0,0.9 0.3,1.8 1.5,1.8 5.99999,-0.3 7.20001,-0.6 16.2,-0.6 11.69999,0 16.20001,0.3 30.3,0.6 1.8,-1.8 1.8,-8.1 0,-9.9 -5.39999,-0.6 -16.50001,-10e-6 -26.4,-12.6 l -65.7,-78 c -2.4,-2.69999 -3.9,-5.1 -3.9,-7.5 0,-2.1 0.30001,-4.20001 10.5,-14.7 l 44.1,-45.3 c 13.79999,-14.69998 25.80001,-15.3 37.8,-16.8 1.8,-1.8 1.8,-8.1 0,-9.9 -14.09999,0.3 -16.50001,0.6 -28.5,0.6 -11.99999,0 -19.80001,-0.3 -33.9,-0.6 -1.8,1.8 -1.8,8.1 0,9.9 10.79999,1.2 20.99999,2.10002 8.4,15.6 l -49.5,52.8 c -6.59999,6.9 -13.20001,10.8 -23.7,11.7 l 0,-52.8 c 0,-24.89997 5.10002,-26.4 26.1,-27.3 1.8,-1.8 1.8,-8.1 0,-9.9 -14.69999,0.3 -23.70002,0.6 -39,0.6 -14.999985,0 -23.700015,-0.3 -38.7,-0.6 -1.799998,1.8 -1.799998,8.1 0,9.9 20.999979,0.9 26.1,2.40003 26.1,27.3 l 0,120.3 c 0,24.89998 -5.100021,26.4 -26.1,27.3 -1.799998,1.8 -1.799998,8.1 0,9.9 14.699985,-0.3 23.700015,-0.6 39,-0.6 14.99998,0 23.70002,0.3 38.7,0.6 1.8,-1.8 1.8,-8.1 0,-9.9 -20.99998,-0.9 -26.1,-2.40002 -26.1,-27.3" />
  </g>
</svg>
