<?xml version="1.0" encoding="UTF-8" standalone="no"?>
<!-- Created with Inkscape (http://www.inkscape.org/) -->

<svg
   xmlns:dc="http://purl.org/dc/elements/1.1/"
   xmlns:cc="http://creativecommons.org/ns#"
   xmlns:rdf="http://www.w3.org/1999/02/22-rdf-syntax-ns#"
   xmlns:svg="http://www.w3.org/2000/svg"
   xmlns="http://www.w3.org/2000/svg"
   xmlns:sodipodi="http://sodipodi.sourceforge.net/DTD/sodipodi-0.dtd"
   xmlns:inkscape="http://www.inkscape.org/namespaces/inkscape"
   id="svg2"
   version="1.1"
   inkscape:version="0.48.2 r9819"
   width="786.86816"
   height="218.47227"
   preserveAspectRatio="xMinYMin meet"
   viewBox="0 0 787 219"
   xml:space="preserve"
   sodipodi:docname="segment-edge.svg"><metadata
     id="metadata8"><rdf:RDF><cc:Work
         rdf:about=""><dc:format>image/svg+xml</dc:format><dc:type
           rdf:resource="http://purl.org/dc/dcmitype/StillImage" /><dc:title></dc:title></cc:Work></rdf:RDF></metadata><defs
     id="defs6"><clipPath
       clipPathUnits="userSpaceOnUse"
       id="clipPath18"><path
         d="m 0,0 203.8696,0 0,51.5949 L 0,51.5949 0,0 z"
         id="path20"
         inkscape:connector-curvature="0" /></clipPath></defs><sodipodi:namedview
     pagecolor="#ffffff"
     bordercolor="#666666"
     borderopacity="1"
     objecttolerance="10"
     gridtolerance="10"
     guidetolerance="10"
     inkscape:pageopacity="0"
     inkscape:pageshadow="2"
     inkscape:window-width="1680"
     inkscape:window-height="1030"
     id="namedview4"
     showgrid="false"
     inkscape:zoom="1"
     inkscape:cx="388.45371"
     inkscape:cy="108.13442"
     inkscape:window-x="-2"
     inkscape:window-y="-3"
     inkscape:window-maximized="1"
     inkscape:current-layer="g10"
     units="pt"
     fit-margin-top="10"
     fit-margin-left="10"
     fit-margin-bottom="10"
     fit-margin-right="10"
     inkscape:document-units="pt" /><g
     id="g10"
     inkscape:groupmode="layer"
     inkscape:label="autohint-4"
     transform="matrix(1.25,0,0,-1.25,265.96965,141.48152)">






<g
   id="g3022"
   transform="matrix(3,0,0,3,-203.94312,-51.592608)"><path
   d="m 69.91827,47.62405 c 0,-20.4093 -1.13384,-26.64547 -44.78707,-26.64547 l -13.6062,0 0,-17.57468 c 19.84237,1.70078 64.06253,1.70078 86.1726,1.70078 23.24393,0 74.83411,0 95.24341,-1.70078 l 0,17.57468 -18.70852,0 c -53.85788,0 -53.85788,7.37002 -53.85788,27.2124"
   style="fill:none;stroke:#000000;stroke-width:0.5;stroke-linecap:round;stroke-linejoin:round;stroke-miterlimit:10;stroke-opacity:1;stroke-dasharray:none"
   id="path26"
   inkscape:connector-curvature="0" /><path
   d="m 62.92077,28.34929 c -0.76412,-1.29477 -1.80494,-2.57491 -3.16662,-3.86951 1.87828,-0.04747 3.51944,0.12174 4.9753,0.49695 l -1.80868,3.37256 z"
   style="fill:#000000;fill-opacity:1;fill-rule:nonzero;stroke:#000000;stroke-width:0.5;stroke-linecap:round;stroke-linejoin:round;stroke-miterlimit:10;stroke-opacity:1;stroke-dasharray:none"
   id="path28"
   inkscape:connector-curvature="0" /><path
   d="m 132.09941,26.87149 c -1.87507,-0.08679 -3.52534,0.0083 -4.99258,0.2724 0.85072,-1.22427 1.95036,-2.45843 3.33762,-3.72296 l 1.65496,3.45056 z"
   style="fill:#000000;fill-opacity:1;fill-rule:nonzero;stroke:#000000;stroke-width:0.5;stroke-linecap:round;stroke-linejoin:round;stroke-miterlimit:10;stroke-opacity:1;stroke-dasharray:none"
   id="path30"
   inkscape:connector-curvature="0" /><path
   d="m 69.91827,47.62405 0,-20.4093 -1.13384,-6.23617 -43.65323,0"
   style="fill:none;stroke:#000000;stroke-width:0.5;stroke-linecap:round;stroke-linejoin:round;stroke-miterlimit:10;stroke-opacity:1;stroke-dasharray:0.5, 2;stroke-dashoffset:1.5"
   id="path32"
   inkscape:connector-curvature="0" /><path
   d="m 174.23249,20.97858 -53.85788,0 0,7.37002 0,19.84238"
   style="fill:none;stroke:#000000;stroke-width:0.5;stroke-linecap:round;stroke-linejoin:round;stroke-miterlimit:10;stroke-opacity:1;stroke-dasharray:0.5, 2;stroke-dashoffset:1.5"
   id="path34"
   inkscape:connector-curvature="0" /><path
   d="m 68.41827,46.12405 3,0 0,3 -3,0 0,-3 z"
   style="fill:#000000;fill-opacity:1;fill-rule:nonzero;stroke:none"
   id="path36"
   inkscape:connector-curvature="0" /><path
   d="m 23.6312,19.47858 3,0 0,3 -3,0 0,-3 z"
   style="fill:#000000;fill-opacity:1;fill-rule:nonzero;stroke:none"
   id="path38"
   inkscape:connector-curvature="0" /><path
   d="m 10.025,19.47858 3,0 0,3 -3,0 0,-3 z"
   style="fill:#000000;fill-opacity:1;fill-rule:nonzero;stroke:none"
   id="path40"
   inkscape:connector-curvature="0" /><path
   d="m 10.025,1.9039 3,0 0,3 -3,0 0,-3 z"
   style="fill:#000000;fill-opacity:1;fill-rule:nonzero;stroke:none"
   id="path42"
   inkscape:connector-curvature="0" /><path
   d="m 96.1976,3.60468 3,0 0,3 -3,0 0,-3 z"
   style="fill:#000000;fill-opacity:1;fill-rule:nonzero;stroke:none"
   id="path44"
   inkscape:connector-curvature="0" /><path
   d="m 191.44101,1.9039 3,0 0,3 -3,0 0,-3 z"
   style="fill:#000000;fill-opacity:1;fill-rule:nonzero;stroke:none"
   id="path46"
   inkscape:connector-curvature="0" /><path
   d="m 191.44101,19.47858 3,0 0,3 -3,0 0,-3 z"
   style="fill:#000000;fill-opacity:1;fill-rule:nonzero;stroke:none"
   id="path48"
   inkscape:connector-curvature="0" /><path
   d="m 172.73249,19.47858 3,0 0,3 -3,0 0,-3 z"
   style="fill:#000000;fill-opacity:1;fill-rule:nonzero;stroke:none"
   id="path50"
   inkscape:connector-curvature="0" /><path
   d="m 118.87461,46.69098 3,0 0,3 -3,0 0,-3 z"
   style="fill:#000000;fill-opacity:1;fill-rule:nonzero;stroke:none"
   id="path52"
   inkscape:connector-curvature="0" /><path
   d="m 70.91827,27.21475 c 0,0.26522 -0.10536,0.51958 -0.29289,0.70711 -0.18753,0.18753 -0.44189,0.29289 -0.70711,0.29289 -0.2652,0 -0.51957,-0.10536 -0.7071,-0.29289 -0.18753,-0.18753 -0.2929,-0.44189 -0.2929,-0.70711 0,-0.26521 0.10537,-0.51957 0.2929,-0.70711 0.18753,-0.18753 0.4419,-0.29289 0.7071,-0.29289 0.26522,0 0.51958,0.10536 0.70711,0.29289 0.18753,0.18754 0.29289,0.4419 0.29289,0.70711 z"
   style="fill:#000000;fill-opacity:1;fill-rule:nonzero;stroke:none"
   id="path54"
   inkscape:connector-curvature="0" /><path
   d="m 69.78443,20.97858 c 0,0.26521 -0.10536,0.51957 -0.2929,0.7071 -0.18753,0.18753 -0.44189,0.2929 -0.7071,0.2929 -0.26522,0 -0.51958,-0.10537 -0.70711,-0.2929 -0.18753,-0.18753 -0.29289,-0.44189 -0.29289,-0.7071 0,-0.26522 0.10536,-0.51958 0.29289,-0.70711 0.18753,-0.18753 0.44189,-0.29289 0.70711,-0.29289 0.26521,0 0.51957,0.10536 0.7071,0.29289 0.18754,0.18753 0.2929,0.44189 0.2929,0.70711 z"
   style="fill:#000000;fill-opacity:1;fill-rule:nonzero;stroke:none"
   id="path56"
   inkscape:connector-curvature="0" /><path
   d="m 32.36737,5.10468 c 0,0.26521 -0.10536,0.51957 -0.29289,0.7071 -0.18753,0.18753 -0.44189,0.2929 -0.70711,0.2929 -0.26521,0 -0.51957,-0.10537 -0.7071,-0.2929 -0.18753,-0.18753 -0.2929,-0.44189 -0.2929,-0.7071 0,-0.26522 0.10537,-0.51958 0.2929,-0.70711 0.18753,-0.18753 0.44189,-0.29289 0.7071,-0.29289 0.26522,0 0.51958,0.10536 0.70711,0.29289 0.18753,0.18753 0.29289,0.44189 0.29289,0.70711 z"
   style="fill:#000000;fill-opacity:1;fill-rule:nonzero;stroke:none"
   id="path58"
   inkscape:connector-curvature="0" /><path
   d="m 76.58753,5.10468 c 0,0.26521 -0.10536,0.51957 -0.2929,0.7071 -0.18753,0.18753 -0.44189,0.2929 -0.7071,0.2929 -0.26522,0 -0.51958,-0.10537 -0.70711,-0.2929 -0.18753,-0.18753 -0.29289,-0.44189 -0.29289,-0.7071 0,-0.26522 0.10536,-0.51958 0.29289,-0.70711 0.18753,-0.18753 0.44189,-0.29289 0.70711,-0.29289 0.26521,0 0.51957,0.10536 0.7071,0.29289 0.18754,0.18753 0.2929,0.44189 0.2929,0.70711 z"
   style="fill:#000000;fill-opacity:1;fill-rule:nonzero;stroke:none"
   id="path60"
   inkscape:connector-curvature="0" /><path
   d="m 121.94153,5.10468 c 0,0.26521 -0.10536,0.51957 -0.29289,0.7071 -0.18753,0.18753 -0.4419,0.2929 -0.70711,0.2929 -0.26521,0 -0.51958,-0.10537 -0.70711,-0.2929 -0.18753,-0.18753 -0.29289,-0.44189 -0.29289,-0.7071 0,-0.26522 0.10536,-0.51958 0.29289,-0.70711 0.18753,-0.18753 0.4419,-0.29289 0.70711,-0.29289 0.26521,0 0.51958,0.10536 0.70711,0.29289 0.18753,0.18753 0.29289,0.44189 0.29289,0.70711 z"
   style="fill:#000000;fill-opacity:1;fill-rule:nonzero;stroke:none"
   id="path62"
   inkscape:connector-curvature="0" /><path
   d="m 173.53171,5.10468 c 0,0.26521 -0.10536,0.51957 -0.29289,0.7071 -0.18753,0.18753 -0.4419,0.2929 -0.70711,0.2929 -0.26521,0 -0.51958,-0.10537 -0.70711,-0.2929 -0.18753,-0.18753 -0.29289,-0.44189 -0.29289,-0.7071 0,-0.26522 0.10536,-0.51958 0.29289,-0.70711 0.18753,-0.18753 0.4419,-0.29289 0.70711,-0.29289 0.26521,0 0.51958,0.10536 0.70711,0.29289 0.18753,0.18753 0.29289,0.44189 0.29289,0.70711 z"
   style="fill:#000000;fill-opacity:1;fill-rule:nonzero;stroke:none"
   id="path64"
   inkscape:connector-curvature="0" /><path
   d="m 121.37461,20.97858 c 0,0.26521 -0.10537,0.51957 -0.2929,0.7071 -0.18753,0.18753 -0.44189,0.2929 -0.7071,0.2929 -0.26522,0 -0.51958,-0.10537 -0.70711,-0.2929 -0.18753,-0.18753 -0.29289,-0.44189 -0.29289,-0.7071 0,-0.26522 0.10536,-0.51958 0.29289,-0.70711 0.18753,-0.18753 0.44189,-0.29289 0.70711,-0.29289 0.26521,0 0.51957,0.10536 0.7071,0.29289 0.18753,0.18753 0.2929,0.44189 0.2929,0.70711 z"
   style="fill:#000000;fill-opacity:1;fill-rule:nonzero;stroke:none"
   id="path66"
   inkscape:connector-curvature="0" /><path
   d="m 121.37461,28.3486 c 0,0.26522 -0.10537,0.51958 -0.2929,0.70711 -0.18753,0.18753 -0.44189,0.29289 -0.7071,0.29289 -0.26522,0 -0.51958,-0.10536 -0.70711,-0.29289 -0.18753,-0.18753 -0.29289,-0.44189 -0.29289,-0.70711 0,-0.26521 0.10536,-0.51957 0.29289,-0.7071 0.18753,-0.18754 0.44189,-0.2929 0.70711,-0.2929 0.26521,0 0.51957,0.10536 0.7071,0.2929 0.18753,0.18753 0.2929,0.44189 0.2929,0.7071 z"
   style="fill:#000000;fill-opacity:1;fill-rule:nonzero;stroke:none"
   id="path68"
   inkscape:connector-curvature="0" /><text
   y="-44.2202"
   x="59.44627"
   id="text72"
   transform="scale(1,-1)"><tspan
     id="tspan74"
     y="-44.2202"
     x="59.44627"
     style="font-size:9.96259975px;font-variant:normal;font-weight:normal;writing-mode:lr-tb;fill:#000000;fill-opacity:1;fill-rule:nonzero;stroke:none;font-family:CMMI10;-inkscape-font-specification:CMMI10">A</tspan></text>

<text
   y="-17.574699"
   x="71.78447"
   id="text80"
   transform="scale(1,-1)"><tspan
     id="tspan82"
     y="-17.574699"
     x="71.78447"
     style="font-size:9.96259975px;font-variant:normal;font-weight:normal;writing-mode:lr-tb;fill:#000000;fill-opacity:1;fill-rule:nonzero;stroke:none;font-family:CMMI10;-inkscape-font-specification:CMMI10">B</tspan></text>

<text
   y="-17.574699"
   x="0.69186997"
   id="text88"
   transform="scale(1,-1)"><tspan
     id="tspan90"
     y="-17.574699"
     x="0.69186997"
     style="font-size:9.96259975px;font-variant:normal;font-weight:normal;writing-mode:lr-tb;fill:#000000;fill-opacity:1;fill-rule:nonzero;stroke:none;font-family:CMMI10;-inkscape-font-specification:CMMI10">C</tspan></text>

<text
   x="-2.9999999e-05"
   id="text96"
   transform="scale(1,-1)"><tspan
     id="tspan98"
     y="0"
     x="-2.9999999e-05"
     style="font-size:9.96259975px;font-variant:normal;font-weight:normal;writing-mode:lr-tb;fill:#000000;fill-opacity:1;fill-rule:nonzero;stroke:none;font-family:CMMI10;-inkscape-font-specification:CMMI10">D</tspan></text>

<text
   x="195.94096"
   id="text104"
   transform="scale(1,-1)"><tspan
     id="tspan106"
     y="0"
     x="195.94096"
     style="font-size:9.96259975px;font-variant:normal;font-weight:normal;writing-mode:lr-tb;fill:#000000;fill-opacity:1;fill-rule:nonzero;stroke:none;font-family:CMMI10;-inkscape-font-specification:CMMI10">E</tspan></text>

<text
   y="-17.574699"
   x="195.94096"
   id="text112"
   transform="scale(1,-1)"><tspan
     id="tspan114"
     y="-17.574699"
     x="195.94096"
     style="font-size:9.96259975px;font-variant:normal;font-weight:normal;writing-mode:lr-tb;fill:#000000;fill-opacity:1;fill-rule:nonzero;stroke:none;font-family:CMMI10;-inkscape-font-specification:CMMI10">F</tspan></text>

<text
   y="-17.574699"
   x="109.54147"
   id="text120"
   transform="scale(1,-1)"><tspan
     id="tspan122"
     y="-17.574699"
     x="109.54147"
     style="font-size:9.96259975px;font-variant:normal;font-weight:normal;writing-mode:lr-tb;fill:#000000;fill-opacity:1;fill-rule:nonzero;stroke:none;font-family:CMMI10;-inkscape-font-specification:CMMI10">G</tspan></text>

<text
   y="-44.787102"
   x="123.37457"
   id="text128"
   transform="scale(1,-1)"><tspan
     id="tspan130"
     y="-44.787102"
     x="123.37457"
     style="font-size:9.96259975px;font-variant:normal;font-weight:normal;writing-mode:lr-tb;fill:#000000;fill-opacity:1;fill-rule:nonzero;stroke:none;font-family:CMMI10;-inkscape-font-specification:CMMI10">H</tspan></text>

</g>
</g></svg>